<mxfile host="app.diagrams.net" agent="Mozilla/5.0 (Windows NT 10.0; Win64; x64) AppleWebKit/537.36 (KHTML, like Gecko) Chrome/133.0.0.0 Safari/537.36 OPR/118.0.0.0" version="26.2.14">
  <diagram name="Página-1" id="9q10-RTouOh-hi6XxII_">
    <mxGraphModel dx="693" dy="385" grid="1" gridSize="10" guides="1" tooltips="1" connect="1" arrows="1" fold="1" page="1" pageScale="1" pageWidth="827" pageHeight="1169" math="0" shadow="0">
      <root>
        <mxCell id="0" />
        <mxCell id="1" parent="0" />
        <mxCell id="fM8VTKSfvxEO9SP5jy6k-11" style="edgeStyle=orthogonalEdgeStyle;rounded=0;orthogonalLoop=1;jettySize=auto;html=1;entryX=0.5;entryY=0;entryDx=0;entryDy=0;" edge="1" parent="1" source="fM8VTKSfvxEO9SP5jy6k-1" target="fM8VTKSfvxEO9SP5jy6k-2">
          <mxGeometry relative="1" as="geometry" />
        </mxCell>
        <mxCell id="fM8VTKSfvxEO9SP5jy6k-12" style="edgeStyle=orthogonalEdgeStyle;rounded=0;orthogonalLoop=1;jettySize=auto;html=1;entryX=0.5;entryY=0;entryDx=0;entryDy=0;" edge="1" parent="1" source="fM8VTKSfvxEO9SP5jy6k-1" target="fM8VTKSfvxEO9SP5jy6k-10">
          <mxGeometry relative="1" as="geometry" />
        </mxCell>
        <mxCell id="fM8VTKSfvxEO9SP5jy6k-1" value="Adicionar um item" style="ellipse;whiteSpace=wrap;html=1;" vertex="1" parent="1">
          <mxGeometry x="130" y="20" width="90" height="60" as="geometry" />
        </mxCell>
        <mxCell id="fM8VTKSfvxEO9SP5jy6k-14" style="edgeStyle=orthogonalEdgeStyle;rounded=0;orthogonalLoop=1;jettySize=auto;html=1;" edge="1" parent="1" source="fM8VTKSfvxEO9SP5jy6k-2" target="fM8VTKSfvxEO9SP5jy6k-13">
          <mxGeometry relative="1" as="geometry" />
        </mxCell>
        <mxCell id="fM8VTKSfvxEO9SP5jy6k-2" value="Sim" style="ellipse;whiteSpace=wrap;html=1;" vertex="1" parent="1">
          <mxGeometry x="60" y="120" width="90" height="60" as="geometry" />
        </mxCell>
        <mxCell id="fM8VTKSfvxEO9SP5jy6k-16" style="edgeStyle=orthogonalEdgeStyle;rounded=0;orthogonalLoop=1;jettySize=auto;html=1;" edge="1" parent="1" source="fM8VTKSfvxEO9SP5jy6k-10" target="fM8VTKSfvxEO9SP5jy6k-15">
          <mxGeometry relative="1" as="geometry" />
        </mxCell>
        <mxCell id="fM8VTKSfvxEO9SP5jy6k-10" value="Não" style="ellipse;whiteSpace=wrap;html=1;" vertex="1" parent="1">
          <mxGeometry x="200" y="120" width="90" height="60" as="geometry" />
        </mxCell>
        <mxCell id="fM8VTKSfvxEO9SP5jy6k-35" style="edgeStyle=orthogonalEdgeStyle;rounded=0;orthogonalLoop=1;jettySize=auto;html=1;entryX=0.5;entryY=0;entryDx=0;entryDy=0;" edge="1" parent="1" source="fM8VTKSfvxEO9SP5jy6k-13" target="fM8VTKSfvxEO9SP5jy6k-17">
          <mxGeometry relative="1" as="geometry" />
        </mxCell>
        <mxCell id="fM8VTKSfvxEO9SP5jy6k-13" value="1 item no carrinho" style="ellipse;whiteSpace=wrap;html=1;" vertex="1" parent="1">
          <mxGeometry x="20" y="220" width="90" height="60" as="geometry" />
        </mxCell>
        <mxCell id="fM8VTKSfvxEO9SP5jy6k-15" value="Não adiciona um item no carrinho" style="ellipse;whiteSpace=wrap;html=1;" vertex="1" parent="1">
          <mxGeometry x="250" y="220" width="90" height="60" as="geometry" />
        </mxCell>
        <mxCell id="fM8VTKSfvxEO9SP5jy6k-33" style="edgeStyle=orthogonalEdgeStyle;rounded=0;orthogonalLoop=1;jettySize=auto;html=1;entryX=0;entryY=0.5;entryDx=0;entryDy=0;" edge="1" parent="1" source="fM8VTKSfvxEO9SP5jy6k-17" target="fM8VTKSfvxEO9SP5jy6k-20">
          <mxGeometry relative="1" as="geometry" />
        </mxCell>
        <mxCell id="fM8VTKSfvxEO9SP5jy6k-44" style="edgeStyle=orthogonalEdgeStyle;rounded=0;orthogonalLoop=1;jettySize=auto;html=1;entryX=0.5;entryY=0;entryDx=0;entryDy=0;" edge="1" parent="1" source="fM8VTKSfvxEO9SP5jy6k-17" target="fM8VTKSfvxEO9SP5jy6k-19">
          <mxGeometry relative="1" as="geometry" />
        </mxCell>
        <mxCell id="fM8VTKSfvxEO9SP5jy6k-17" value="Adicionar mais?" style="ellipse;whiteSpace=wrap;html=1;" vertex="1" parent="1">
          <mxGeometry x="20" y="320" width="90" height="60" as="geometry" />
        </mxCell>
        <mxCell id="fM8VTKSfvxEO9SP5jy6k-25" style="edgeStyle=orthogonalEdgeStyle;rounded=0;orthogonalLoop=1;jettySize=auto;html=1;" edge="1" parent="1" source="fM8VTKSfvxEO9SP5jy6k-19" target="fM8VTKSfvxEO9SP5jy6k-23">
          <mxGeometry relative="1" as="geometry" />
        </mxCell>
        <mxCell id="fM8VTKSfvxEO9SP5jy6k-19" value="Sim" style="ellipse;whiteSpace=wrap;html=1;" vertex="1" parent="1">
          <mxGeometry x="20" y="430" width="90" height="60" as="geometry" />
        </mxCell>
        <mxCell id="fM8VTKSfvxEO9SP5jy6k-26" style="edgeStyle=orthogonalEdgeStyle;rounded=0;orthogonalLoop=1;jettySize=auto;html=1;" edge="1" parent="1" source="fM8VTKSfvxEO9SP5jy6k-20" target="fM8VTKSfvxEO9SP5jy6k-24">
          <mxGeometry relative="1" as="geometry" />
        </mxCell>
        <mxCell id="fM8VTKSfvxEO9SP5jy6k-20" value="Não" style="ellipse;whiteSpace=wrap;html=1;" vertex="1" parent="1">
          <mxGeometry x="250" y="320" width="90" height="60" as="geometry" />
        </mxCell>
        <mxCell id="fM8VTKSfvxEO9SP5jy6k-23" value="2 itens no carrinho" style="ellipse;whiteSpace=wrap;html=1;" vertex="1" parent="1">
          <mxGeometry x="20" y="525" width="90" height="60" as="geometry" />
        </mxCell>
        <mxCell id="fM8VTKSfvxEO9SP5jy6k-24" value="1 item no carrinho" style="ellipse;whiteSpace=wrap;html=1;" vertex="1" parent="1">
          <mxGeometry x="250" y="430" width="90" height="60" as="geometry" />
        </mxCell>
        <mxCell id="fM8VTKSfvxEO9SP5jy6k-61" style="edgeStyle=orthogonalEdgeStyle;rounded=0;orthogonalLoop=1;jettySize=auto;html=1;" edge="1" parent="1" source="fM8VTKSfvxEO9SP5jy6k-27" target="fM8VTKSfvxEO9SP5jy6k-37">
          <mxGeometry relative="1" as="geometry" />
        </mxCell>
        <mxCell id="fM8VTKSfvxEO9SP5jy6k-27" value="remover um item" style="ellipse;whiteSpace=wrap;html=1;" vertex="1" parent="1">
          <mxGeometry x="580" y="60" width="90" height="60" as="geometry" />
        </mxCell>
        <mxCell id="fM8VTKSfvxEO9SP5jy6k-64" style="edgeStyle=orthogonalEdgeStyle;rounded=0;orthogonalLoop=1;jettySize=auto;html=1;entryX=0.5;entryY=0;entryDx=0;entryDy=0;" edge="1" parent="1" source="fM8VTKSfvxEO9SP5jy6k-28" target="fM8VTKSfvxEO9SP5jy6k-48">
          <mxGeometry relative="1" as="geometry" />
        </mxCell>
        <mxCell id="fM8VTKSfvxEO9SP5jy6k-28" value="Sim" style="ellipse;whiteSpace=wrap;html=1;" vertex="1" parent="1">
          <mxGeometry x="480" y="220" width="90" height="60" as="geometry" />
        </mxCell>
        <mxCell id="fM8VTKSfvxEO9SP5jy6k-65" style="edgeStyle=orthogonalEdgeStyle;rounded=0;orthogonalLoop=1;jettySize=auto;html=1;" edge="1" parent="1" source="fM8VTKSfvxEO9SP5jy6k-29" target="fM8VTKSfvxEO9SP5jy6k-36">
          <mxGeometry relative="1" as="geometry" />
        </mxCell>
        <mxCell id="fM8VTKSfvxEO9SP5jy6k-29" value="Não" style="ellipse;whiteSpace=wrap;html=1;" vertex="1" parent="1">
          <mxGeometry x="700" y="220" width="90" height="60" as="geometry" />
        </mxCell>
        <mxCell id="fM8VTKSfvxEO9SP5jy6k-36" value="não remove um item do carrinho" style="ellipse;whiteSpace=wrap;html=1;" vertex="1" parent="1">
          <mxGeometry x="700" y="320" width="90" height="60" as="geometry" />
        </mxCell>
        <mxCell id="fM8VTKSfvxEO9SP5jy6k-72" style="edgeStyle=orthogonalEdgeStyle;rounded=0;orthogonalLoop=1;jettySize=auto;html=1;entryX=0.5;entryY=0;entryDx=0;entryDy=0;" edge="1" parent="1" source="fM8VTKSfvxEO9SP5jy6k-37" target="fM8VTKSfvxEO9SP5jy6k-29">
          <mxGeometry relative="1" as="geometry" />
        </mxCell>
        <mxCell id="fM8VTKSfvxEO9SP5jy6k-73" style="edgeStyle=orthogonalEdgeStyle;rounded=0;orthogonalLoop=1;jettySize=auto;html=1;entryX=0.5;entryY=0;entryDx=0;entryDy=0;" edge="1" parent="1" source="fM8VTKSfvxEO9SP5jy6k-37" target="fM8VTKSfvxEO9SP5jy6k-28">
          <mxGeometry relative="1" as="geometry" />
        </mxCell>
        <mxCell id="fM8VTKSfvxEO9SP5jy6k-37" value="tem um item no carrinho?" style="ellipse;whiteSpace=wrap;html=1;" vertex="1" parent="1">
          <mxGeometry x="580" y="140" width="90" height="60" as="geometry" />
        </mxCell>
        <mxCell id="fM8VTKSfvxEO9SP5jy6k-47" value="Não pode remover se não tem um item no carrinho" style="ellipse;whiteSpace=wrap;html=1;" vertex="1" parent="1">
          <mxGeometry x="356.25" y="554.5" width="97.5" height="65.5" as="geometry" />
        </mxCell>
        <mxCell id="fM8VTKSfvxEO9SP5jy6k-66" style="edgeStyle=orthogonalEdgeStyle;rounded=0;orthogonalLoop=1;jettySize=auto;html=1;entryX=0.5;entryY=0;entryDx=0;entryDy=0;" edge="1" parent="1" source="fM8VTKSfvxEO9SP5jy6k-48" target="fM8VTKSfvxEO9SP5jy6k-51">
          <mxGeometry relative="1" as="geometry" />
        </mxCell>
        <mxCell id="fM8VTKSfvxEO9SP5jy6k-67" style="edgeStyle=orthogonalEdgeStyle;rounded=0;orthogonalLoop=1;jettySize=auto;html=1;" edge="1" parent="1" source="fM8VTKSfvxEO9SP5jy6k-48" target="fM8VTKSfvxEO9SP5jy6k-50">
          <mxGeometry relative="1" as="geometry" />
        </mxCell>
        <mxCell id="fM8VTKSfvxEO9SP5jy6k-68" style="edgeStyle=orthogonalEdgeStyle;rounded=0;orthogonalLoop=1;jettySize=auto;html=1;entryX=0.5;entryY=0;entryDx=0;entryDy=0;" edge="1" parent="1" source="fM8VTKSfvxEO9SP5jy6k-48" target="fM8VTKSfvxEO9SP5jy6k-60">
          <mxGeometry relative="1" as="geometry" />
        </mxCell>
        <mxCell id="fM8VTKSfvxEO9SP5jy6k-48" value="tem quantos itens?" style="ellipse;whiteSpace=wrap;html=1;" vertex="1" parent="1">
          <mxGeometry x="480" y="320" width="90" height="60" as="geometry" />
        </mxCell>
        <mxCell id="fM8VTKSfvxEO9SP5jy6k-71" style="edgeStyle=orthogonalEdgeStyle;rounded=0;orthogonalLoop=1;jettySize=auto;html=1;" edge="1" parent="1" source="fM8VTKSfvxEO9SP5jy6k-50" target="fM8VTKSfvxEO9SP5jy6k-55">
          <mxGeometry relative="1" as="geometry" />
        </mxCell>
        <mxCell id="fM8VTKSfvxEO9SP5jy6k-50" value="2 itens" style="ellipse;whiteSpace=wrap;html=1;" vertex="1" parent="1">
          <mxGeometry x="600" y="440" width="90" height="60" as="geometry" />
        </mxCell>
        <mxCell id="fM8VTKSfvxEO9SP5jy6k-70" style="edgeStyle=orthogonalEdgeStyle;rounded=0;orthogonalLoop=1;jettySize=auto;html=1;" edge="1" parent="1" source="fM8VTKSfvxEO9SP5jy6k-51" target="fM8VTKSfvxEO9SP5jy6k-58">
          <mxGeometry relative="1" as="geometry" />
        </mxCell>
        <mxCell id="fM8VTKSfvxEO9SP5jy6k-51" value="1 item" style="ellipse;whiteSpace=wrap;html=1;" vertex="1" parent="1">
          <mxGeometry x="480" y="440" width="90" height="60" as="geometry" />
        </mxCell>
        <mxCell id="fM8VTKSfvxEO9SP5jy6k-55" value="tirou 1 item, e agora tem um total de 1 item" style="ellipse;whiteSpace=wrap;html=1;" vertex="1" parent="1">
          <mxGeometry x="595" y="550" width="100" height="70" as="geometry" />
        </mxCell>
        <mxCell id="fM8VTKSfvxEO9SP5jy6k-58" value="tirou 1 item, e agora tem um total de 0 itens" style="ellipse;whiteSpace=wrap;html=1;" vertex="1" parent="1">
          <mxGeometry x="476.25" y="552.25" width="97.5" height="65.5" as="geometry" />
        </mxCell>
        <mxCell id="fM8VTKSfvxEO9SP5jy6k-69" style="edgeStyle=orthogonalEdgeStyle;rounded=0;orthogonalLoop=1;jettySize=auto;html=1;" edge="1" parent="1" source="fM8VTKSfvxEO9SP5jy6k-60" target="fM8VTKSfvxEO9SP5jy6k-47">
          <mxGeometry relative="1" as="geometry" />
        </mxCell>
        <mxCell id="fM8VTKSfvxEO9SP5jy6k-60" value="0 itens" style="ellipse;whiteSpace=wrap;html=1;" vertex="1" parent="1">
          <mxGeometry x="360" y="440" width="90" height="60" as="geometry" />
        </mxCell>
      </root>
    </mxGraphModel>
  </diagram>
</mxfile>
